<?xml version="1.0" encoding="UTF-8" standalone="no"?>
<!DOCTYPE svg PUBLIC "-//W3C//DTD SVG 1.1//EN" "http://www.w3.org/Graphics/SVG/1.1/DTD/svg11.dtd">
<svg width="100%" height="100%" viewBox="0 0 462 462" version="1.1" xmlns="http://www.w3.org/2000/svg" xmlns:xlink="http://www.w3.org/1999/xlink" xml:space="preserve" xmlns:serif="http://www.serif.com/" style="fill-rule:evenodd;clip-rule:evenodd;stroke-linejoin:round;stroke-miterlimit:2;">
    <g transform="matrix(1,0,0,1,-197.14,-630.646)">
        <g transform="matrix(3.19429,0,0,3.19429,129.006,532.425)">
            <rect x="95.344" y="32.314" width="29.485" height="29.486" style="fill:rgb(66,92,130);"/>
            <rect x="128.514" y="65.485" width="29.486" height="29.486" style="fill:rgb(66,92,130);"/>
            <rect x="95.344" y="65.485" width="29.485" height="29.486" style="fill:rgb(66,92,130);"/>
            <rect x="128.514" y="98.657" width="29.486" height="29.486" style="fill:rgb(66,92,130);"/>
            <rect x="95.344" y="98.657" width="29.485" height="29.486" style="fill:rgb(16,16,16);"/>
            <rect x="62.171" y="98.657" width="29.486" height="29.486" style="fill:rgb(16,16,16);"/>
            <rect x="29" y="98.657" width="29.486" height="29.486" style="fill:rgb(16,16,16);"/>
            <rect x="62.171" y="65.485" width="29.486" height="29.486" style="fill:rgb(16,16,16);"/>
        </g>
        <g transform="matrix(1,0,0,1,36.7653,960.098)">
            <path d="M253.25,126L249.125,126L242.5,116.812C240.875,118.271 239.146,119.646 237.312,120.938C235.521,122.188 233.625,123.292 231.625,124.25C229.625,125.167 227.562,125.896 225.438,126.438C223.354,126.979 221.229,127.25 219.062,127.25C214.354,127.25 209.917,126.375 205.75,124.625C201.625,122.833 198,120.375 194.875,117.25C191.792,114.083 189.354,110.354 187.562,106.062C185.771,101.729 184.875,97.021 184.875,91.938C184.875,86.896 185.771,82.208 187.562,77.875C189.354,73.542 191.792,69.792 194.875,66.625C198,63.458 201.625,60.979 205.75,59.188C209.917,57.396 214.354,56.5 219.062,56.5C220.562,56.5 222.104,56.625 223.688,56.875C225.312,57.125 226.875,57.542 228.375,58.125C229.917,58.667 231.354,59.396 232.688,60.313C234.021,61.229 235.146,62.354 236.062,63.688L236.062,32.438L253.25,32.438L253.25,126ZM236.062,91.938C236.062,89.604 235.604,87.354 234.688,85.188C233.812,82.979 232.604,81.042 231.062,79.375C229.521,77.667 227.708,76.313 225.625,75.313C223.583,74.271 221.396,73.75 219.062,73.75C216.729,73.75 214.521,74.167 212.438,75C210.396,75.833 208.604,77.042 207.062,78.625C205.562,80.167 204.375,82.063 203.5,84.313C202.625,86.563 202.188,89.104 202.188,91.938C202.188,94.396 202.625,96.729 203.5,98.938C204.375,101.146 205.562,103.083 207.062,104.75C208.604,106.417 210.396,107.729 212.438,108.688C214.521,109.646 216.729,110.125 219.062,110.125C221.396,110.125 223.583,109.625 225.625,108.625C227.708,107.583 229.521,106.229 231.062,104.562C232.604,102.854 233.812,100.917 234.688,98.75C235.604,96.542 236.062,94.271 236.062,91.938Z" style="fill:rgb(16,16,16);fill-rule:nonzero;"/>
            <path d="M292.938,109.625C293.604,109.833 294.271,109.979 294.938,110.062C295.604,110.104 296.271,110.125 296.938,110.125C298.604,110.125 300.208,109.896 301.75,109.438C303.292,108.979 304.729,108.333 306.062,107.5C307.438,106.625 308.646,105.583 309.688,104.375C310.771,103.125 311.646,101.75 312.312,100.25L324.812,112.812C323.229,115.062 321.396,117.083 319.312,118.875C317.271,120.667 315.042,122.188 312.625,123.438C310.25,124.688 307.729,125.625 305.062,126.25C302.438,126.917 299.729,127.25 296.938,127.25C292.229,127.25 287.792,126.375 283.625,124.625C279.5,122.875 275.875,120.438 272.75,117.312C269.667,114.188 267.229,110.479 265.438,106.188C263.646,101.854 262.75,97.104 262.75,91.938C262.75,86.646 263.646,81.813 265.438,77.438C267.229,73.063 269.667,69.333 272.75,66.25C275.875,63.167 279.5,60.771 283.625,59.063C287.792,57.354 292.229,56.5 296.938,56.5C299.729,56.5 302.458,56.833 305.125,57.5C307.792,58.167 310.312,59.125 312.688,60.375C315.104,61.625 317.354,63.167 319.438,65C321.521,66.792 323.354,68.813 324.938,71.063L292.938,109.625ZM301.688,74.438C300.896,74.146 300.104,73.958 299.312,73.875C298.562,73.792 297.771,73.75 296.938,73.75C294.604,73.75 292.396,74.188 290.312,75.063C288.271,75.896 286.479,77.104 284.938,78.688C283.438,80.271 282.25,82.188 281.375,84.438C280.5,86.646 280.062,89.146 280.062,91.938C280.062,92.563 280.083,93.271 280.125,94.063C280.208,94.854 280.312,95.667 280.438,96.5C280.604,97.292 280.792,98.063 281,98.813C281.208,99.563 281.479,100.229 281.812,100.812L301.688,74.438Z" style="fill:rgb(16,16,16);fill-rule:nonzero;"/>
            <path d="M351.688,126L326.188,59.063L345.625,59.063L360.25,100.812L374.812,59.063L394.312,59.063L368.812,126L351.688,126Z" style="fill:rgb(16,16,16);fill-rule:nonzero;"/>
            <path d="M425.438,109.625C426.104,109.833 426.771,109.979 427.438,110.062C428.104,110.104 428.771,110.125 429.438,110.125C431.104,110.125 432.708,109.896 434.25,109.438C435.792,108.979 437.229,108.333 438.562,107.5C439.938,106.625 441.146,105.583 442.188,104.375C443.271,103.125 444.146,101.75 444.812,100.25L457.312,112.812C455.729,115.062 453.896,117.083 451.812,118.875C449.771,120.667 447.542,122.188 445.125,123.438C442.75,124.688 440.229,125.625 437.562,126.25C434.938,126.917 432.229,127.25 429.438,127.25C424.729,127.25 420.292,126.375 416.125,124.625C412,122.875 408.375,120.438 405.25,117.312C402.167,114.188 399.729,110.479 397.938,106.188C396.146,101.854 395.25,97.104 395.25,91.938C395.25,86.646 396.146,81.813 397.938,77.438C399.729,73.063 402.167,69.333 405.25,66.25C408.375,63.167 412,60.771 416.125,59.063C420.292,57.354 424.729,56.5 429.438,56.5C432.229,56.5 434.958,56.833 437.625,57.5C440.292,58.167 442.812,59.125 445.188,60.375C447.604,61.625 449.854,63.167 451.938,65C454.021,66.792 455.854,68.813 457.438,71.063L425.438,109.625ZM434.188,74.438C433.396,74.146 432.604,73.958 431.812,73.875C431.062,73.792 430.271,73.75 429.438,73.75C427.104,73.75 424.896,74.188 422.812,75.063C420.771,75.896 418.979,77.104 417.438,78.688C415.938,80.271 414.75,82.188 413.875,84.438C413,86.646 412.562,89.146 412.562,91.938C412.562,92.563 412.583,93.271 412.625,94.063C412.708,94.854 412.812,95.667 412.938,96.5C413.104,97.292 413.292,98.063 413.5,98.813C413.708,99.563 413.979,100.229 414.312,100.812L434.188,74.438Z" style="fill:rgb(16,16,16);fill-rule:nonzero;"/>
            <path d="M483.125,126L466.062,126L466.062,59.063L470.188,59.063L475.812,65.563C478.562,63.063 481.667,61.146 485.125,59.813C488.625,58.438 492.271,57.75 496.062,57.75C500.146,57.75 504,58.542 507.625,60.125C511.25,61.667 514.417,63.813 517.125,66.563C519.833,69.271 521.958,72.458 523.5,76.125C525.083,79.75 525.875,83.625 525.875,87.75L525.875,126L508.812,126L508.812,87.75C508.812,86 508.479,84.354 507.812,82.813C507.146,81.229 506.229,79.854 505.062,78.688C503.896,77.521 502.542,76.604 501,75.938C499.458,75.271 497.812,74.938 496.062,74.938C494.271,74.938 492.583,75.271 491,75.938C489.417,76.604 488.042,77.521 486.875,78.688C485.708,79.854 484.792,81.229 484.125,82.813C483.458,84.354 483.125,86 483.125,87.75L483.125,126Z" style="fill:rgb(16,16,16);fill-rule:nonzero;"/>
            <path d="M554.312,126L528.812,59.063L548.25,59.063L562.875,100.812L577.438,59.063L596.938,59.063L571.438,126L554.312,126Z" style="fill:rgb(16,16,16);fill-rule:nonzero;"/>
        </g>
    </g>
</svg>
